{
  "accessors": [
    {
      "bufferView": 2,
      "componentType": 5126,
      "count": 6758,
      "max": [
        3.09615421295166,
        4.969048023223877,
        1.0383257865905762
      ],
      "min": [
        -3.09615421295166,
        0.34694188833236694,
        -1.0981991291046143
      ],
      "type": "VEC3"
    },
    {
      "bufferView": 2,
      "byteOffset": 81096,
      "componentType": 5126,
      "count": 6758,
      "max": [
        0.9999940395355225,
        0.9999991059303284,
        0.9999959468841553
      ],
      "min": [
        -0.9999939799308777,
        -0.9999847412109375,
        -0.9999975562095642
      ],
      "type": "VEC3"
    },
    {
      "bufferView": 1,
      "componentType": 5126,
      "count": 6758,
      "max": [
        0.7500001192092896,
        0.8750001192092896
      ],
      "min": [
        0.25,
        0.375
      ],
      "type": "VEC2"
    },
    {
      "bufferView": 0,
      "componentType": 5125,
      "count": 29952,
      "type": "SCALAR"
    },
    {
      "bufferView": 2,
      "byteOffset": 162192,
      "componentType": 5126,
      "count": 169,
      "max": [
        0.20105791091918945,
        3.7460885047912598,
        0.9793198108673096
      ],
      "min": [
        -0.20105791091918945,
        3.5330727100372314,
        0.6864118576049805
      ],
      "type": "VEC3"
    },
    {
      "bufferView": 2,
      "byteOffset": 164220,
      "componentType": 5126,
      "count": 169,
      "max": [
        0.9970884323120117,
        0.9999739527702332,
        0.9998206496238708
      ],
      "min": [
        -0.9970884323120117,
        -0.9985084533691406,
        -0.1497504860162735
      ],
      "type": "VEC3"
    },
    {
      "bufferView": 1,
      "byteOffset": 54064,
      "componentType": 5126,
      "count": 169,
      "max": [
        0.5416666865348816,
        0.8750001192092896
      ],
      "min": [
        0.4583333134651184,
        0.8333333134651184
      ],
      "type": "VEC2"
    },
    {
      "bufferView": 0,
      "byteOffset": 119808,
      "componentType": 5125,
      "count": 768,
      "type": "SCALAR"
    },
    {
      "bufferView": 2,
      "byteOffset": 166248,
      "componentType": 5126,
      "count": 370,
      "max": [
        2.654045581817627,
        1.244948148727417,
        0.6583089232444763
      ],
      "min": [
        -2.6656720638275146,
        -3.102536678314209,
        -1.1491762399673462
      ],
      "type": "VEC3"
    },
    {
      "bufferView": 2,
      "byteOffset": 170688,
      "componentType": 5126,
      "count": 370,
      "max": [
        0.9971416592597961,
        0.9885436296463013,
        0.9999969005584717
      ],
      "min": [
        -0.996005117893219,
        -0.9976317882537842,
        -0.9998550415039063
      ],
      "type": "VEC3"
    },
    {
      "bufferView": 1,
      "byteOffset": 55416,
      "componentType": 5126,
      "count": 370,
      "max": [
        0.7500001192092896,
        0.8750001192092896
      ],
      "min": [
        0.2500000298023224,
        0.3750000298023224
      ],
      "type": "VEC2"
    },
    {
      "bufferView": 0,
      "byteOffset": 122880,
      "componentType": 5125,
      "count": 1728,
      "type": "SCALAR"
    },
    {
      "bufferView": 2,
      "byteOffset": 175128,
      "componentType": 5126,
      "count": 125,
      "max": [
        0.7826883792877197,
        0.3329734802246094,
        0.9801549911499023
      ],
      "min": [
        -0.7826883792877197,
        -0.6128997802734375,
        0.034281790256500244
      ],
      "type": "VEC3"
    },
    {
      "bufferView": 2,
      "byteOffset": 176628,
      "componentType": 5126,
      "count": 125,
      "max": [
        1.0,
        1.0,
        1.0
      ],
      "min": [
        -1.0,
        -1.0,
        -1.0
      ],
      "type": "VEC3"
    },
    {
      "bufferView": 1,
      "byteOffset": 58376,
      "componentType": 5126,
      "count": 125,
      "max": [
        0.8750001192092896,
        1.0000001192092896
      ],
      "min": [
        0.1250000149011612,
        0.0
      ],
      "type": "VEC2"
    },
    {
      "bufferView": 0,
      "byteOffset": 129792,
      "componentType": 5125,
      "count": 576,
      "type": "SCALAR"
    },
    {
      "bufferView": 2,
      "byteOffset": 178128,
      "componentType": 5126,
      "count": 615,
      "max": [
        0.7826513648033142,
        -0.6956114172935486,
        0.23568855226039886
      ],
      "min": [
        -0.7736898064613342,
        -1.3986163139343262,
        -0.16822554171085358
      ],
      "type": "VEC3"
    },
    {
      "bufferView": 2,
      "byteOffset": 185508,
      "componentType": 5126,
      "count": 615,
      "max": [
        0.9999906420707703,
        0.9996892213821411,
        0.9999960660934448
      ],
      "min": [
        -0.9999879598617554,
        -0.9990851879119873,
        -0.9999960660934448
      ],
      "type": "VEC3"
    },
    {
      "bufferView": 1,
      "byteOffset": 59376,
      "componentType": 5126,
      "count": 615,
      "max": [
        0.8750001192092896,
        1.0000001192092896
      ],
      "min": [
        0.1250000149011612,
        0.0
      ],
      "type": "VEC2"
    },
    {
      "bufferView": 0,
      "byteOffset": 132096,
      "componentType": 5125,
      "count": 2880,
      "type": "SCALAR"
    },
    {
      "bufferView": 2,
      "byteOffset": 192888,
      "componentType": 5126,
      "count": 309,
      "max": [
        0.5610038042068481,
        -1.127054214477539,
        -0.4919392764568329
      ],
      "min": [
        -0.3905750811100006,
        -1.918684720993042,
        -2.529162645339966
      ],
      "type": "VEC3"
    },
    {
      "bufferView": 2,
      "byteOffset": 196596,
      "componentType": 5126,
      "count": 309,
      "max": [
        0.9996598362922668,
        0.9962011575698853,
        0.992382287979126
      ],
      "min": [
        -0.998975396156311,
        -0.9959741830825806,
        -0.9985506534576416
      ],
      "type": "VEC3"
    },
    {
      "bufferView": 1,
      "byteOffset": 64296,
      "componentType": 5126,
      "count": 309,
      "max": [
        0.8750001192092896,
        1.0000001192092896
      ],
      "min": [
        0.125,
        0.0
      ],
      "type": "VEC2"
    },
    {
      "bufferView": 0,
      "byteOffset": 143616,
      "componentType": 5125,
      "count": 1536,
      "type": "SCALAR"
    },
    {
      "bufferView": 2,
      "byteOffset": 200304,
      "componentType": 5126,
      "count": 12506,
      "max": [
        3.6658010482788086,
        3.008450746536255,
        -0.14138981699943542
      ],
      "min": [
        -3.6658010482788086,
        -0.040333718061447144,
        -2.741018772125244
      ],
      "type": "VEC3"
    },
    {
      "bufferView": 2,
      "byteOffset": 350376,
      "componentType": 5126,
      "count": 12506,
      "max": [
        0.9998036623001099,
        1.0,
        0.6901741027832031
      ],
      "min": [
        -0.9998036623001099,
        -1.0,
        -0.9999879002571106
      ],
      "type": "VEC3"
    },
    {
      "bufferView": 1,
      "byteOffset": 66768,
      "componentType": 5126,
      "count": 12506,
      "max": [
        1.000000238418579,
        1.0000001192092896
      ],
      "min": [
        0.0,
        0.28124991059303284
      ],
      "type": "VEC2"
    },
    {
      "bufferView": 0,
      "byteOffset": 149760,
      "componentType": 5125,
      "count": 72192,
      "type": "SCALAR"
    },
    {
      "bufferView": 2,
      "byteOffset": 500448,
      "componentType": 5126,
      "count": 5282,
      "max": [
        3.3940207958221436,
        2.6643152236938477,
        0.3311927914619446
      ],
      "min": [
        -3.3940207958221436,
        0.30380120873451233,
        -0.3246062099933624
      ],
      "type": "VEC3"
    },
    {
      "bufferView": 2,
      "byteOffset": 563832,
      "componentType": 5126,
      "count": 5282,
      "max": [
        0.8217405080795288,
        0.7750303745269775,
        0.999987781047821
      ],
      "min": [
        -0.8217390775680542,
        -0.775029718875885,
        0.569861888885498
      ],
      "type": "VEC3"
    },
    {
      "bufferView": 1,
      "byteOffset": 166816,
      "componentType": 5126,
      "count": 5282,
      "max": [
        1.000000238418579,
        0.28125008940696716
      ],
      "min": [
        0.0,
        0.0
      ],
      "type": "VEC2"
    },
    {
      "bufferView": 0,
      "byteOffset": 438528,
      "componentType": 5125,
      "count": 29184,
      "type": "SCALAR"
    }
  ],
  "asset": {
    "extras": {
      "author": "JosephPG (https://sketchfab.com/JosephPG07)",
      "license": "CC-BY-4.0 (http://creativecommons.org/licenses/by/4.0/)",
      "source": "https://sketchfab.com/3d-models/jake-el-perro-81a1ad2354ab4b47b3d22b2f3d2140b9",
      "title": "Jake el perro"
    },
    "generator": "Sketchfab-15.32.0",
    "version": "2.0"
  },
  "bufferViews": [
    {
      "buffer": 0,
      "byteLength": 555264,
      "name": "floatBufferViews",
      "target": 34963
    },
    {
      "buffer": 0,
      "byteLength": 209072,
      "byteOffset": 555264,
      "byteStride": 8,
      "name": "floatBufferViews",
      "target": 34962
    },
    {
      "buffer": 0,
      "byteLength": 627216,
      "byteOffset": 764336,
      "byteStride": 12,
      "name": "floatBufferViews",
      "target": 34962
    }
  ],
  "buffers": [
    {
      "byteLength": 1391552,
      "uri": "scene.bin"
    }
  ],
  "materials": [
    {
      "doubleSided": true,
      "name": "Cuerpo",
      "pbrMetallicRoughness": {
        "baseColorFactor": [
          0.7999999999999999,
          0.38567400000000013,
          0.05438809999999997,
          1.0
        ],
        "metallicFactor": 0.0,
        "roughnessFactor": 0.5
      }
    },
    {
      "doubleSided": true,
      "name": "DentroBoca",
      "pbrMetallicRoughness": {
        "baseColorFactor": [
          0.194618,
          0.0,
          0.0,
          1.0
        ],
        "metallicFactor": 0.0,
        "roughnessFactor": 0.5
      }
    },
    {
      "doubleSided": true,
      "name": "Nariz",
      "pbrMetallicRoughness": {
        "baseColorFactor": [
          0.0,
          0.0,
          0.0,
          1.0
        ],
        "metallicFactor": 0.0,
        "roughnessFactor": 0.829114
      }
    },
    {
      "doubleSided": true,
      "name": "Dientes",
      "pbrMetallicRoughness": {
        "metallicFactor": 0.0,
        "roughnessFactor": 0.0
      }
    },
    {
      "doubleSided": true,
      "name": "Lengua",
      "pbrMetallicRoughness": {
        "baseColorFactor": [
          0.800654,
          0.122984,
          0.147496,
          1.0
        ],
        "metallicFactor": 0.0,
        "roughnessFactor": 0.5
      }
    },
    {
      "doubleSided": true,
      "name": "material",
      "pbrMetallicRoughness": {
        "baseColorFactor": [
          0.0,
          0.0,
          0.0,
          1.0
        ],
        "metallicFactor": 0.0,
        "roughnessFactor": 0.126582
      }
    },
    {
      "doubleSided": true,
      "name": "Iris",
      "pbrMetallicRoughness": {
        "baseColorFactor": [
          0.8,
          0.8,
          0.8,
          1.0
        ],
        "metallicFactor": 0.0,
        "roughnessFactor": 0.0
      }
    }
  ],
  "meshes": [
    {
      "name": "Object_0",
      "primitives": [
        {
          "attributes": {
            "NORMAL": 1,
            "POSITION": 0,
            "TEXCOORD_0": 2
          },
          "indices": 3,
          "material": 0,
          "mode": 4
        }
      ]
    },
    {
      "name": "Object_1",
      "primitives": [
        {
          "attributes": {
            "NORMAL": 5,
            "POSITION": 4,
            "TEXCOORD_0": 6
          },
          "indices": 7,
          "material": 1,
          "mode": 4
        }
      ]
    },
    {
      "name": "Object_2",
      "primitives": [
        {
          "attributes": {
            "NORMAL": 9,
            "POSITION": 8,
            "TEXCOORD_0": 10
          },
          "indices": 11,
          "material": 0,
          "mode": 4
        }
      ]
    },
    {
      "name": "Object_3",
      "primitives": [
        {
          "attributes": {
            "NORMAL": 13,
            "POSITION": 12,
            "TEXCOORD_0": 14
          },
          "indices": 15,
          "material": 2,
          "mode": 4
        }
      ]
    },
    {
      "name": "Object_4",
      "primitives": [
        {
          "attributes": {
            "NORMAL": 17,
            "POSITION": 16,
            "TEXCOORD_0": 18
          },
          "indices": 19,
          "material": 3,
          "mode": 4
        }
      ]
    },
    {
      "name": "Object_5",
      "primitives": [
        {
          "attributes": {
            "NORMAL": 21,
            "POSITION": 20,
            "TEXCOORD_0": 22
          },
          "indices": 23,
          "material": 4,
          "mode": 4
        }
      ]
    },
    {
      "name": "Object_6",
      "primitives": [
        {
          "attributes": {
            "NORMAL": 25,
            "POSITION": 24,
            "TEXCOORD_0": 26
          },
          "indices": 27,
          "material": 5,
          "mode": 4
        }
      ]
    },
    {
      "name": "Object_7",
      "primitives": [
        {
          "attributes": {
            "NORMAL": 29,
            "POSITION": 28,
            "TEXCOORD_0": 30
          },
          "indices": 31,
          "material": 6,
          "mode": 4
        }
      ]
    }
  ],
  "nodes": [
    {
      "children": [
        1
      ],
      "matrix": [
        1.0,
        0.0,
        0.0,
        0.0,
        0.0,
        3.828568672208042e-16,
        -1.0,
        0.0,
        0.0,
        1.0,
        3.828568672208042e-16,
        0.0,
        0.0,
        0.0,
        0.0,
        1.0
      ],
      "name": "Sketchfab_model"
    },
    {
      "children": [
        2
      ],
      "name": "root"
    },
    {
      "children": [
        3,
        6
      ],
      "matrix": [
        1.0,
        0.0,
        0.0,
        0.0,
        0.0,
        2.220446049250313e-16,
        1.0,
        0.0,
        0.0,
        -1.0,
        2.220446049250313e-16,
        0.0,
        0.0,
        0.0,
        0.0,
        1.0
      ],
      "name": "GLTF_SceneRootNode"
    },
    {
      "children": [
        4,
        5
      ],
      "matrix": [
        1.0,
        0.0,
        0.0,
        0.0,
        0.0,
        1.0,
        0.0,
        0.0,
        0.0,
        0.0,
        1.0,
        0.0,
        0.0,
        -0.3511981964111328,
        0.0,
        1.0
      ],
      "name": "Cube_0"
    },
    {
      "mesh": 0,
      "name": "Object_4"
    },
    {
      "mesh": 1,
      "name": "Object_5"
    },
    {
      "children": [
        7,
        8,
        9,
        10,
        11,
        12
      ],
      "matrix": [
        0.19692310690879822,
        0.0,
        0.0,
        0.0,
        0.0,
        0.19692310690879822,
        0.0,
        0.0,
        0.0,
        0.0,
        0.19692310690879822,
        0.0,
        0.0,
        3.567355155944824,
        0.9567580223083496,
        1.0
      ],
      "name": "Cube.001_1"
    },
    {
      "mesh": 2,
      "name": "Object_7"
    },
    {
      "mesh": 3,
      "name": "Object_8"
    },
    {
      "mesh": 4,
      "name": "Object_9"
    },
    {
      "mesh": 5,
      "name": "Object_10"
    },
    {
      "mesh": 6,
      "name": "Object_11"
    },
    {
      "mesh": 7,
      "name": "Object_12"
    }
  ],
  "scene": 0,
  "scenes": [
    {
      "name": "Sketchfab_Scene",
      "nodes": [
        0
      ]
    }
  ]
}
